<mxfile host="Electron" agent="Mozilla/5.0 (Macintosh; Intel Mac OS X 10_15_7) AppleWebKit/537.36 (KHTML, like Gecko) draw.io/27.0.9 Chrome/134.0.6998.205 Electron/35.4.0 Safari/537.36" version="27.0.9">
  <diagram name="第 1 页" id="uFXbsXMEGi-VbBYZTvGh">
    <mxGraphModel dx="837" dy="540" grid="0" gridSize="10" guides="1" tooltips="1" connect="1" arrows="1" fold="1" page="1" pageScale="1" pageWidth="827" pageHeight="1169" math="0" shadow="0">
      <root>
        <mxCell id="0" />
        <mxCell id="1" parent="0" />
        <mxCell id="TVlEixporJxNpFRVTQEc-40" value="" style="rounded=1;whiteSpace=wrap;html=1;fillColor=none;dashed=1;" parent="1" vertex="1">
          <mxGeometry x="25" y="75" width="385" height="425" as="geometry" />
        </mxCell>
        <mxCell id="TVlEixporJxNpFRVTQEc-42" value="" style="rounded=1;whiteSpace=wrap;html=1;fillColor=none;dashed=1;" parent="1" vertex="1">
          <mxGeometry x="460" y="72.5" width="290" height="427.5" as="geometry" />
        </mxCell>
        <mxCell id="TVlEixporJxNpFRVTQEc-1" value="&lt;b&gt;&lt;font style=&quot;font-size: 22px;&quot;&gt;Intergration Model&lt;/font&gt;&lt;/b&gt;" style="text;html=1;align=center;verticalAlign=middle;resizable=0;points=[];autosize=1;strokeColor=none;fillColor=none;" parent="1" vertex="1">
          <mxGeometry x="10" y="5" width="220" height="40" as="geometry" />
        </mxCell>
        <mxCell id="TVlEixporJxNpFRVTQEc-2" value="crm_cust_info" style="swimlane;fontStyle=0;childLayout=stackLayout;horizontal=1;startSize=30;horizontalStack=0;resizeParent=1;resizeParentMax=0;resizeLast=0;collapsible=1;marginBottom=0;whiteSpace=wrap;html=1;fillColor=#dae8fc;strokeColor=#6c8ebf;" parent="1" vertex="1">
          <mxGeometry x="230" y="110" width="140" height="90" as="geometry" />
        </mxCell>
        <mxCell id="TVlEixporJxNpFRVTQEc-3" value="cst_id" style="text;strokeColor=none;fillColor=none;align=left;verticalAlign=middle;spacingLeft=4;spacingRight=4;overflow=hidden;points=[[0,0.5],[1,0.5]];portConstraint=eastwest;rotatable=0;whiteSpace=wrap;html=1;" parent="TVlEixporJxNpFRVTQEc-2" vertex="1">
          <mxGeometry y="30" width="140" height="30" as="geometry" />
        </mxCell>
        <mxCell id="TVlEixporJxNpFRVTQEc-19" value="cst_key" style="text;strokeColor=none;fillColor=none;align=left;verticalAlign=middle;spacingLeft=4;spacingRight=4;overflow=hidden;points=[[0,0.5],[1,0.5]];portConstraint=eastwest;rotatable=0;whiteSpace=wrap;html=1;" parent="TVlEixporJxNpFRVTQEc-2" vertex="1">
          <mxGeometry y="60" width="140" height="30" as="geometry" />
        </mxCell>
        <mxCell id="TVlEixporJxNpFRVTQEc-6" value="Customer Information" style="text;html=1;align=center;verticalAlign=middle;resizable=0;points=[];autosize=1;strokeColor=none;fillColor=none;" parent="1" vertex="1">
          <mxGeometry x="230" y="80" width="140" height="30" as="geometry" />
        </mxCell>
        <mxCell id="TVlEixporJxNpFRVTQEc-7" value="crm_prd_info" style="swimlane;fontStyle=0;childLayout=stackLayout;horizontal=1;startSize=30;horizontalStack=0;resizeParent=1;resizeParentMax=0;resizeLast=0;collapsible=1;marginBottom=0;whiteSpace=wrap;html=1;fillColor=#dae8fc;strokeColor=#6c8ebf;" parent="1" vertex="1">
          <mxGeometry x="230" y="380" width="140" height="60" as="geometry" />
        </mxCell>
        <mxCell id="TVlEixporJxNpFRVTQEc-8" value="prd_key" style="text;strokeColor=none;fillColor=none;align=left;verticalAlign=middle;spacingLeft=4;spacingRight=4;overflow=hidden;points=[[0,0.5],[1,0.5]];portConstraint=eastwest;rotatable=0;whiteSpace=wrap;html=1;" parent="TVlEixporJxNpFRVTQEc-7" vertex="1">
          <mxGeometry y="30" width="140" height="30" as="geometry" />
        </mxCell>
        <mxCell id="TVlEixporJxNpFRVTQEc-9" value="Current &amp;amp; History&amp;nbsp;&lt;div&gt;Product Information&lt;/div&gt;" style="text;html=1;align=center;verticalAlign=middle;resizable=0;points=[];autosize=1;strokeColor=none;fillColor=none;" parent="1" vertex="1">
          <mxGeometry x="235" y="345" width="130" height="40" as="geometry" />
        </mxCell>
        <mxCell id="TVlEixporJxNpFRVTQEc-13" value="crm_sales_details" style="swimlane;fontStyle=0;childLayout=stackLayout;horizontal=1;startSize=30;horizontalStack=0;resizeParent=1;resizeParentMax=0;resizeLast=0;collapsible=1;marginBottom=0;whiteSpace=wrap;html=1;fillColor=#dae8fc;strokeColor=#6c8ebf;" parent="1" vertex="1">
          <mxGeometry x="40" y="240" width="140" height="90" as="geometry" />
        </mxCell>
        <mxCell id="TVlEixporJxNpFRVTQEc-18" value="cst_id" style="text;strokeColor=none;fillColor=none;align=left;verticalAlign=middle;spacingLeft=4;spacingRight=4;overflow=hidden;points=[[0,0.5],[1,0.5]];portConstraint=eastwest;rotatable=0;whiteSpace=wrap;html=1;" parent="TVlEixporJxNpFRVTQEc-13" vertex="1">
          <mxGeometry y="30" width="140" height="30" as="geometry" />
        </mxCell>
        <mxCell id="TVlEixporJxNpFRVTQEc-14" value="prd_key" style="text;strokeColor=none;fillColor=none;align=left;verticalAlign=middle;spacingLeft=4;spacingRight=4;overflow=hidden;points=[[0,0.5],[1,0.5]];portConstraint=eastwest;rotatable=0;whiteSpace=wrap;html=1;" parent="TVlEixporJxNpFRVTQEc-13" vertex="1">
          <mxGeometry y="60" width="140" height="30" as="geometry" />
        </mxCell>
        <mxCell id="TVlEixporJxNpFRVTQEc-15" value="Transaction Records about&amp;nbsp;&lt;div&gt;Sales &amp;amp; Orders&lt;/div&gt;" style="text;html=1;align=center;verticalAlign=middle;resizable=0;points=[];autosize=1;strokeColor=none;fillColor=none;" parent="1" vertex="1">
          <mxGeometry x="25" y="205" width="170" height="40" as="geometry" />
        </mxCell>
        <mxCell id="TVlEixporJxNpFRVTQEc-20" value="erp_cust_az12" style="swimlane;fontStyle=0;childLayout=stackLayout;horizontal=1;startSize=30;horizontalStack=0;resizeParent=1;resizeParentMax=0;resizeLast=0;collapsible=1;marginBottom=0;whiteSpace=wrap;html=1;fillColor=#fff2cc;strokeColor=#d6b656;" parent="1" vertex="1">
          <mxGeometry x="520" y="255" width="140" height="60" as="geometry" />
        </mxCell>
        <mxCell id="TVlEixporJxNpFRVTQEc-21" value="cid" style="text;strokeColor=none;fillColor=none;align=left;verticalAlign=middle;spacingLeft=4;spacingRight=4;overflow=hidden;points=[[0,0.5],[1,0.5]];portConstraint=eastwest;rotatable=0;whiteSpace=wrap;html=1;" parent="TVlEixporJxNpFRVTQEc-20" vertex="1">
          <mxGeometry y="30" width="140" height="30" as="geometry" />
        </mxCell>
        <mxCell id="TVlEixporJxNpFRVTQEc-22" value="Extract Customer&amp;nbsp;&lt;div&gt;Information (Birthday, Gender)&lt;/div&gt;" style="text;html=1;align=center;verticalAlign=middle;resizable=0;points=[];autosize=1;strokeColor=none;fillColor=none;" parent="1" vertex="1">
          <mxGeometry x="500" y="220" width="180" height="40" as="geometry" />
        </mxCell>
        <mxCell id="TVlEixporJxNpFRVTQEc-24" style="edgeStyle=orthogonalEdgeStyle;rounded=0;orthogonalLoop=1;jettySize=auto;html=1;exitX=1;exitY=0.5;exitDx=0;exitDy=0;entryX=0;entryY=0.5;entryDx=0;entryDy=0;" parent="1" source="TVlEixporJxNpFRVTQEc-18" target="TVlEixporJxNpFRVTQEc-3" edge="1">
          <mxGeometry relative="1" as="geometry" />
        </mxCell>
        <mxCell id="TVlEixporJxNpFRVTQEc-26" style="edgeStyle=orthogonalEdgeStyle;rounded=0;orthogonalLoop=1;jettySize=auto;html=1;exitX=1;exitY=0.5;exitDx=0;exitDy=0;entryX=0;entryY=0.5;entryDx=0;entryDy=0;" parent="1" source="TVlEixporJxNpFRVTQEc-14" target="TVlEixporJxNpFRVTQEc-8" edge="1">
          <mxGeometry relative="1" as="geometry" />
        </mxCell>
        <mxCell id="TVlEixporJxNpFRVTQEc-28" value="erp_loc_a101" style="swimlane;fontStyle=0;childLayout=stackLayout;horizontal=1;startSize=30;horizontalStack=0;resizeParent=1;resizeParentMax=0;resizeLast=0;collapsible=1;marginBottom=0;whiteSpace=wrap;html=1;fillColor=#fff2cc;strokeColor=#d6b656;" parent="1" vertex="1">
          <mxGeometry x="520" y="140" width="140" height="60" as="geometry" />
        </mxCell>
        <mxCell id="TVlEixporJxNpFRVTQEc-29" value="cid" style="text;strokeColor=none;fillColor=none;align=left;verticalAlign=middle;spacingLeft=4;spacingRight=4;overflow=hidden;points=[[0,0.5],[1,0.5]];portConstraint=eastwest;rotatable=0;whiteSpace=wrap;html=1;" parent="TVlEixporJxNpFRVTQEc-28" vertex="1">
          <mxGeometry y="30" width="140" height="30" as="geometry" />
        </mxCell>
        <mxCell id="TVlEixporJxNpFRVTQEc-30" value="Customer Information&lt;div&gt;(Country)&lt;/div&gt;" style="text;html=1;align=center;verticalAlign=middle;resizable=0;points=[];autosize=1;strokeColor=none;fillColor=none;" parent="1" vertex="1">
          <mxGeometry x="520" y="110" width="140" height="40" as="geometry" />
        </mxCell>
        <mxCell id="TVlEixporJxNpFRVTQEc-32" value="&lt;div style=&quot;color: rgb(33, 33, 33); line-height: 18px; white-space: pre;&quot;&gt;&lt;font face=&quot;Helvetica&quot;&gt;erp_PX_CAT_G1V2&lt;/font&gt;&lt;/div&gt;" style="swimlane;fontStyle=0;childLayout=stackLayout;horizontal=1;startSize=30;horizontalStack=0;resizeParent=1;resizeParentMax=0;resizeLast=0;collapsible=1;marginBottom=0;whiteSpace=wrap;html=1;fillColor=#fff2cc;strokeColor=#d6b656;" parent="1" vertex="1">
          <mxGeometry x="520" y="380" width="140" height="60" as="geometry" />
        </mxCell>
        <mxCell id="TVlEixporJxNpFRVTQEc-33" value="id" style="text;strokeColor=none;fillColor=none;align=left;verticalAlign=middle;spacingLeft=4;spacingRight=4;overflow=hidden;points=[[0,0.5],[1,0.5]];portConstraint=eastwest;rotatable=0;whiteSpace=wrap;html=1;" parent="TVlEixporJxNpFRVTQEc-32" vertex="1">
          <mxGeometry y="30" width="140" height="30" as="geometry" />
        </mxCell>
        <mxCell id="TVlEixporJxNpFRVTQEc-34" value="Product Catorgery" style="text;html=1;align=center;verticalAlign=middle;resizable=0;points=[];autosize=1;strokeColor=none;fillColor=none;" parent="1" vertex="1">
          <mxGeometry x="530" y="350" width="120" height="30" as="geometry" />
        </mxCell>
        <mxCell id="TVlEixporJxNpFRVTQEc-37" style="edgeStyle=orthogonalEdgeStyle;rounded=0;orthogonalLoop=1;jettySize=auto;html=1;exitX=0;exitY=0.5;exitDx=0;exitDy=0;entryX=1;entryY=0.5;entryDx=0;entryDy=0;" parent="1" source="TVlEixporJxNpFRVTQEc-21" target="TVlEixporJxNpFRVTQEc-19" edge="1">
          <mxGeometry relative="1" as="geometry" />
        </mxCell>
        <mxCell id="TVlEixporJxNpFRVTQEc-38" style="edgeStyle=orthogonalEdgeStyle;rounded=0;orthogonalLoop=1;jettySize=auto;html=1;exitX=0;exitY=0.5;exitDx=0;exitDy=0;" parent="1" source="TVlEixporJxNpFRVTQEc-29" target="TVlEixporJxNpFRVTQEc-19" edge="1">
          <mxGeometry relative="1" as="geometry" />
        </mxCell>
        <mxCell id="TVlEixporJxNpFRVTQEc-39" style="edgeStyle=orthogonalEdgeStyle;rounded=0;orthogonalLoop=1;jettySize=auto;html=1;exitX=0;exitY=0.5;exitDx=0;exitDy=0;entryX=1;entryY=0.5;entryDx=0;entryDy=0;" parent="1" source="TVlEixporJxNpFRVTQEc-33" target="TVlEixporJxNpFRVTQEc-8" edge="1">
          <mxGeometry relative="1" as="geometry" />
        </mxCell>
        <mxCell id="TVlEixporJxNpFRVTQEc-41" value="&lt;font style=&quot;font-size: 22px;&quot;&gt;CRM&lt;/font&gt;" style="rounded=0;whiteSpace=wrap;html=1;strokeColor=none;fillColor=#dae8fc;" parent="1" vertex="1">
          <mxGeometry x="157.5" y="45" width="102.5" height="40" as="geometry" />
        </mxCell>
        <mxCell id="TVlEixporJxNpFRVTQEc-43" value="&lt;font style=&quot;font-size: 22px;&quot;&gt;ERP&lt;/font&gt;" style="rounded=0;whiteSpace=wrap;html=1;strokeColor=none;fillColor=#fff2cc;" parent="1" vertex="1">
          <mxGeometry x="538.75" y="45" width="102.5" height="40" as="geometry" />
        </mxCell>
        <mxCell id="TVlEixporJxNpFRVTQEc-45" value="Customer" style="text;html=1;strokeColor=#b85450;fillColor=#f8cecc;align=center;verticalAlign=middle;whiteSpace=wrap;overflow=hidden;" parent="1" vertex="1">
          <mxGeometry x="230" y="195" width="140" height="25" as="geometry" />
        </mxCell>
        <mxCell id="TVlEixporJxNpFRVTQEc-46" value="Customer" style="text;html=1;strokeColor=#b85450;fillColor=#f8cecc;align=center;verticalAlign=middle;whiteSpace=wrap;overflow=hidden;" parent="1" vertex="1">
          <mxGeometry x="520" y="200" width="140" height="25" as="geometry" />
        </mxCell>
        <mxCell id="TVlEixporJxNpFRVTQEc-47" value="Customer" style="text;html=1;strokeColor=#b85450;fillColor=#f8cecc;align=center;verticalAlign=middle;whiteSpace=wrap;overflow=hidden;" parent="1" vertex="1">
          <mxGeometry x="520" y="315" width="140" height="25" as="geometry" />
        </mxCell>
        <mxCell id="TVlEixporJxNpFRVTQEc-48" value="Product" style="text;html=1;strokeColor=#9673a6;fillColor=#e1d5e7;align=center;verticalAlign=middle;whiteSpace=wrap;overflow=hidden;" parent="1" vertex="1">
          <mxGeometry x="230" y="440" width="140" height="25" as="geometry" />
        </mxCell>
        <mxCell id="TVlEixporJxNpFRVTQEc-49" value="Product" style="text;html=1;strokeColor=#9673a6;fillColor=#e1d5e7;align=center;verticalAlign=middle;whiteSpace=wrap;overflow=hidden;" parent="1" vertex="1">
          <mxGeometry x="520" y="440" width="140" height="25" as="geometry" />
        </mxCell>
        <mxCell id="TVlEixporJxNpFRVTQEc-50" value="Sales" style="text;html=1;strokeColor=#9673a6;fillColor=#e1d5e7;align=center;verticalAlign=middle;whiteSpace=wrap;overflow=hidden;" parent="1" vertex="1">
          <mxGeometry x="40" y="330" width="140" height="25" as="geometry" />
        </mxCell>
      </root>
    </mxGraphModel>
  </diagram>
</mxfile>
